<svg xmlns="http://www.w3.org/2000/svg" viewBox="0 0 400 400" width="400" height="400">
  <g>
    <path d="M50,350 Q100,300 150,350 Q200,380 250,350 Q300,300 350,350 Q380,200 300,100 Q200,20 100,100 Q20,200 50,350 Z" fill="#e3f2fd" stroke="#1976d2" stroke-width="4"/>
    <!-- Hotspots for main provinces -->
    <circle cx="90" cy="180" r="12" fill="#1976d2"/>
    <circle cx="140" cy="90" r="12" fill="#1976d2"/>
    <circle cx="200" cy="60" r="12" fill="#1976d2"/>
    <circle cx="270" cy="100" r="12" fill="#1976d2"/>
    <circle cx="320" cy="180" r="12" fill="#1976d2"/>
    <circle cx="250" cy="300" r="12" fill="#1976d2"/>
    <circle cx="120" cy="300" r="12" fill="#1976d2"/>
    <!-- Labels (for demonstration, not actual province names/positions) -->
    <text x="70" y="175" font-size="16" fill="#1976d2">WC</text>
    <text x="120" y="85" font-size="16" fill="#1976d2">NC</text>
    <text x="190" y="55" font-size="16" fill="#1976d2">GP</text>
    <text x="260" y="95" font-size="16" fill="#1976d2">MP</text>
    <text x="310" y="175" font-size="16" fill="#1976d2">KZN</text>
    <text x="240" y="295" font-size="16" fill="#1976d2">EC</text>
    <text x="110" y="295" font-size="16" fill="#1976d2">FS</text>
  </g>
</svg>
